<svg xmlns="http://www.w3.org/2000/svg" xmlns:xlink="http://www.w3.org/1999/xlink" width="600" height="400" viewBox="0 0 2400 1600">
<defs>
  <clipPath id="clip100">
    <rect x="0" y="0" width="2400" height="1600"></rect>
  </clipPath>
</defs>
<path clip-path="url(#clip100)" d="M0 1600 L2400 1600 L2400 0 L0 0  Z" fill="#ffffff" fill-rule="evenodd" fill-opacity="1"></path>
<defs>
  <clipPath id="clip101">
    <rect x="480" y="0" width="1681" height="1600"></rect>
  </clipPath>
</defs>
<path clip-path="url(#clip100)" d="M447.244 1552.76 L1952.76 1552.76 L1952.76 47.2441 L447.244 47.2441  Z" fill="#ffffff" fill-rule="evenodd" fill-opacity="1"></path>
<defs>
  <clipPath id="clip102">
    <rect x="447" y="47" width="1507" height="1507"></rect>
  </clipPath>
</defs>
<polyline clip-path="url(#clip102)" style="stroke:#000000; stroke-linecap:round; stroke-linejoin:round; stroke-width:4; stroke-opacity:1; fill:none" points="1219.2,883.652 1384.41,1234.62 "></polyline>
<polyline clip-path="url(#clip102)" style="stroke:#000000; stroke-linecap:round; stroke-linejoin:round; stroke-width:4; stroke-opacity:1; fill:none" points="1219.2,883.652 914.842,698.556 "></polyline>
<polyline clip-path="url(#clip102)" style="stroke:#000000; stroke-linecap:round; stroke-linejoin:round; stroke-width:4; stroke-opacity:1; fill:none" points="1219.2,883.652 1466.93,618.515 "></polyline>
<polyline clip-path="url(#clip102)" style="stroke:#000000; stroke-linecap:round; stroke-linejoin:round; stroke-width:4; stroke-opacity:1; fill:none" points="1219.2,883.652 1187.93,1337.68 "></polyline>
<polyline clip-path="url(#clip102)" style="stroke:#000000; stroke-linecap:round; stroke-linejoin:round; stroke-width:4; stroke-opacity:1; fill:none" points="1219.2,883.652 1085.93,571.412 "></polyline>
<polyline clip-path="url(#clip102)" style="stroke:#000000; stroke-linecap:round; stroke-linejoin:round; stroke-width:4; stroke-opacity:1; fill:none" points="1219.2,883.652 980.312,973.923 "></polyline>
<polyline clip-path="url(#clip102)" style="stroke:#000000; stroke-linecap:round; stroke-linejoin:round; stroke-width:4; stroke-opacity:1; fill:none" points="1384.41,1234.62 1187.93,1337.68 "></polyline>
<polyline clip-path="url(#clip102)" style="stroke:#000000; stroke-linecap:round; stroke-linejoin:round; stroke-width:4; stroke-opacity:1; fill:none" points="1737.68,572.712 1466.93,618.515 "></polyline>
<polyline clip-path="url(#clip102)" style="stroke:#000000; stroke-linecap:round; stroke-linejoin:round; stroke-width:4; stroke-opacity:1; fill:none" points="1737.68,572.712 1609.15,262.317 "></polyline>
<polyline clip-path="url(#clip102)" style="stroke:#000000; stroke-linecap:round; stroke-linejoin:round; stroke-width:4; stroke-opacity:1; fill:none" points="914.842,698.556 662.317,552.546 "></polyline>
<polyline clip-path="url(#clip102)" style="stroke:#000000; stroke-linecap:round; stroke-linejoin:round; stroke-width:4; stroke-opacity:1; fill:none" points="914.842,698.556 1085.93,571.412 "></polyline>
<polyline clip-path="url(#clip102)" style="stroke:#000000; stroke-linecap:round; stroke-linejoin:round; stroke-width:4; stroke-opacity:1; fill:none" points="914.842,698.556 980.312,973.923 "></polyline>
<polyline clip-path="url(#clip102)" style="stroke:#000000; stroke-linecap:round; stroke-linejoin:round; stroke-width:4; stroke-opacity:1; fill:none" points="1466.93,618.515 1609.15,262.317 "></polyline>
<polyline clip-path="url(#clip102)" style="stroke:#000000; stroke-linecap:round; stroke-linejoin:round; stroke-width:4; stroke-opacity:1; fill:none" points="1085.93,571.412 980.312,973.923 "></polyline>
<path clip-path="url(#clip102)" d="M1147.3 949.722 L1291.1 949.722 L1291.1 817.582 L1147.3 817.582 L1147.3 949.722 L1147.3 949.722  Z" fill="#90ee90" fill-rule="evenodd" fill-opacity="1"></path>
<polyline clip-path="url(#clip102)" style="stroke:#000000; stroke-linecap:round; stroke-linejoin:round; stroke-width:4; stroke-opacity:1; fill:none" points="1147.3,949.722 1291.1,949.722 1291.1,817.582 1147.3,817.582 1147.3,949.722 "></polyline>
<path clip-path="url(#clip102)" d="M1456.31 1234.62 L1456.08 1228.91 L1455.4 1223.23 L1454.27 1217.63 L1452.7 1212.13 L1450.7 1206.78 L1448.28 1201.6 L1445.45 1196.63 L1442.24 1191.9 L1438.66 1187.44 L1434.74 1183.28 L1430.51 1179.44 L1425.98 1175.96 L1421.18 1172.84 L1416.16 1170.11 L1410.93 1167.79 L1405.54 1165.9 L1400.01 1164.44 L1394.39 1163.42 L1388.7 1162.85 L1382.98 1162.74 L1377.28 1163.08 L1371.62 1163.87 L1366.04 1165.11 L1360.57 1166.79 L1355.26 1168.9 L1350.13 1171.43 L1345.22 1174.35 L1340.55 1177.65 L1336.16 1181.32 L1332.08 1185.32 L1328.33 1189.64 L1324.93 1194.23 L1321.91 1199.09 L1319.29 1204.16 L1317.07 1209.44 L1315.28 1214.87 L1313.93 1220.42 L1313.03 1226.06 L1312.57 1231.76 L1312.57 1237.48 L1313.03 1243.18 L1313.93 1248.82 L1315.28 1254.38 L1317.07 1259.81 L1319.29 1265.08 L1321.91 1270.16 L1324.93 1275.01 L1328.33 1279.61 L1332.08 1283.92 L1336.16 1287.92 L1340.55 1291.59 L1345.22 1294.89 L1350.13 1297.82 L1355.26 1300.34 L1360.57 1302.45 L1366.04 1304.13 L1371.62 1305.37 L1377.28 1306.16 L1382.98 1306.5 L1388.7 1306.39 L1394.39 1305.82 L1400.01 1304.81 L1405.54 1303.34 L1410.93 1301.45 L1416.16 1299.13 L1421.18 1296.4 L1425.98 1293.29 L1430.51 1289.8 L1434.74 1285.96 L1438.66 1281.8 L1442.24 1277.34 L1445.45 1272.61 L1448.28 1267.64 L1450.7 1262.47 L1452.7 1257.11 L1454.27 1251.61 L1455.4 1246.01 L1456.08 1240.33 L1456.31 1234.62 L1456.31 1234.62  Z" fill="#ffffff" fill-rule="evenodd" fill-opacity="1"></path>
<polyline clip-path="url(#clip102)" style="stroke:#000000; stroke-linecap:round; stroke-linejoin:round; stroke-width:4; stroke-opacity:1; fill:none" points="1456.31,1234.62 1456.08,1228.91 1455.4,1223.23 1454.27,1217.63 1452.7,1212.13 1450.7,1206.78 1448.28,1201.6 1445.45,1196.63 1442.24,1191.9 1438.66,1187.44 1434.74,1183.28 1430.51,1179.44 1425.98,1175.96 1421.18,1172.84 1416.16,1170.11 1410.93,1167.79 1405.54,1165.9 1400.01,1164.44 1394.39,1163.42 1388.7,1162.85 1382.98,1162.74 1377.28,1163.08 1371.62,1163.87 1366.04,1165.11 1360.57,1166.79 1355.26,1168.9 1350.13,1171.43 1345.22,1174.35 1340.55,1177.65 1336.16,1181.32 1332.08,1185.32 1328.33,1189.64 1324.93,1194.23 1321.91,1199.09 1319.29,1204.16 1317.07,1209.44 1315.28,1214.87 1313.93,1220.42 1313.03,1226.06 1312.57,1231.76 1312.57,1237.48 1313.03,1243.18 1313.93,1248.82 1315.28,1254.38 1317.07,1259.81 1319.29,1265.08 1321.91,1270.16 1324.93,1275.01 1328.33,1279.61 1332.08,1283.92 1336.16,1287.92 1340.55,1291.59 1345.22,1294.89 1350.13,1297.82 1355.26,1300.34 1360.57,1302.45 1366.04,1304.13 1371.62,1305.37 1377.28,1306.16 1382.98,1306.5 1388.7,1306.39 1394.39,1305.82 1400.01,1304.81 1405.54,1303.34 1410.93,1301.45 1416.16,1299.13 1421.18,1296.4 1425.98,1293.29 1430.51,1289.8 1434.74,1285.96 1438.66,1281.8 1442.24,1277.34 1445.45,1272.61 1448.28,1267.64 1450.7,1262.47 1452.7,1257.11 1454.27,1251.61 1455.4,1246.01 1456.08,1240.33 1456.31,1234.62 "></polyline>
<path clip-path="url(#clip102)" d="M1809.58 572.712 L1809.35 567 L1808.67 561.324 L1807.54 555.72 L1805.97 550.223 L1803.97 544.869 L1801.55 539.69 L1798.72 534.72 L1795.51 529.991 L1791.93 525.532 L1788.01 521.37 L1783.78 517.534 L1779.25 514.046 L1774.45 510.93 L1769.43 508.203 L1764.2 505.885 L1758.81 503.989 L1753.28 502.528 L1747.66 501.51 L1741.97 500.943 L1736.25 500.829 L1730.55 501.17 L1724.89 501.963 L1719.3 503.204 L1713.84 504.884 L1708.53 506.992 L1703.4 509.517 L1698.48 512.44 L1693.82 515.745 L1689.43 519.41 L1685.35 523.412 L1681.6 527.726 L1678.2 532.324 L1675.18 537.177 L1672.56 542.255 L1670.34 547.526 L1668.55 552.956 L1667.2 558.511 L1666.3 564.155 L1665.84 569.854 L1665.84 575.571 L1666.3 581.269 L1667.2 586.914 L1668.55 592.469 L1670.34 597.899 L1672.56 603.169 L1675.18 608.247 L1678.2 613.101 L1681.6 617.699 L1685.35 622.013 L1689.43 626.015 L1693.82 629.679 L1698.48 632.984 L1703.4 635.908 L1708.53 638.432 L1713.84 640.541 L1719.3 642.221 L1724.89 643.461 L1730.55 644.254 L1736.25 644.595 L1741.97 644.482 L1747.66 643.914 L1753.28 642.897 L1758.81 641.435 L1764.2 639.539 L1769.43 637.221 L1774.45 634.495 L1779.25 631.378 L1783.78 627.891 L1788.01 624.054 L1791.93 619.893 L1795.51 615.434 L1798.72 610.704 L1801.55 605.734 L1803.97 600.556 L1805.97 595.201 L1807.54 589.705 L1808.67 584.101 L1809.35 578.425 L1809.58 572.712 L1809.58 572.712  Z" fill="#ffffff" fill-rule="evenodd" fill-opacity="1"></path>
<polyline clip-path="url(#clip102)" style="stroke:#000000; stroke-linecap:round; stroke-linejoin:round; stroke-width:4; stroke-opacity:1; fill:none" points="1809.58,572.712 1809.35,567 1808.67,561.324 1807.54,555.72 1805.97,550.223 1803.97,544.869 1801.55,539.69 1798.72,534.72 1795.51,529.991 1791.93,525.532 1788.01,521.37 1783.78,517.534 1779.25,514.046 1774.45,510.93 1769.43,508.203 1764.2,505.885 1758.81,503.989 1753.28,502.528 1747.66,501.51 1741.97,500.943 1736.25,500.829 1730.55,501.17 1724.89,501.963 1719.3,503.204 1713.84,504.884 1708.53,506.992 1703.4,509.517 1698.48,512.44 1693.82,515.745 1689.43,519.41 1685.35,523.412 1681.6,527.726 1678.2,532.324 1675.18,537.177 1672.56,542.255 1670.34,547.526 1668.55,552.956 1667.2,558.511 1666.3,564.155 1665.84,569.854 1665.84,575.571 1666.3,581.269 1667.2,586.914 1668.55,592.469 1670.34,597.899 1672.56,603.169 1675.18,608.247 1678.2,613.101 1681.6,617.699 1685.35,622.013 1689.43,626.015 1693.82,629.679 1698.48,632.984 1703.4,635.908 1708.53,638.432 1713.84,640.541 1719.3,642.221 1724.89,643.461 1730.55,644.254 1736.25,644.595 1741.97,644.482 1747.66,643.914 1753.28,642.897 1758.81,641.435 1764.2,639.539 1769.43,637.221 1774.45,634.495 1779.25,631.378 1783.78,627.891 1788.01,624.054 1791.93,619.893 1795.51,615.434 1798.72,610.704 1801.55,605.734 1803.97,600.556 1805.97,595.201 1807.54,589.705 1808.67,584.101 1809.35,578.425 1809.58,572.712 "></polyline>
<path clip-path="url(#clip102)" d="M842.945 764.626 L986.739 764.626 L986.739 632.485 L842.945 632.485 L842.945 764.626 L842.945 764.626  Z" fill="#90ee90" fill-rule="evenodd" fill-opacity="1"></path>
<polyline clip-path="url(#clip102)" style="stroke:#000000; stroke-linecap:round; stroke-linejoin:round; stroke-width:4; stroke-opacity:1; fill:none" points="842.945,764.626 986.739,764.626 986.739,632.485 842.945,632.485 842.945,764.626 "></polyline>
<path clip-path="url(#clip102)" d="M734.214 552.546 L733.987 546.834 L733.307 541.158 L732.177 535.554 L730.607 530.057 L728.604 524.702 L726.182 519.524 L723.357 514.554 L720.145 509.825 L716.568 505.365 L712.648 501.204 L708.41 497.368 L703.88 493.88 L699.088 490.763 L694.063 488.037 L688.837 485.719 L683.444 483.823 L677.917 482.362 L672.292 481.344 L666.603 480.777 L660.888 480.663 L655.181 481.004 L649.52 481.797 L643.939 483.038 L638.475 484.717 L633.161 486.826 L628.032 489.35 L623.119 492.274 L618.455 495.579 L614.067 499.244 L609.985 503.246 L606.233 507.559 L602.836 512.158 L599.816 517.011 L597.19 522.089 L594.976 527.36 L593.188 532.79 L591.837 538.344 L590.931 543.989 L590.477 549.688 L590.477 555.404 L590.931 561.103 L591.837 566.748 L593.188 572.302 L594.976 577.732 L597.19 583.003 L599.816 588.081 L602.836 592.935 L606.233 597.533 L609.985 601.846 L614.067 605.848 L618.455 609.513 L623.119 612.818 L628.032 615.742 L633.161 618.266 L638.475 620.375 L643.939 622.055 L649.52 623.295 L655.181 624.088 L660.888 624.429 L666.603 624.315 L672.292 623.748 L677.917 622.73 L683.444 621.269 L688.837 619.373 L694.063 617.055 L699.088 614.329 L703.88 611.212 L708.41 607.724 L712.648 603.888 L716.568 599.727 L720.145 595.267 L723.357 590.538 L726.182 585.568 L728.604 580.39 L730.607 575.035 L732.177 569.539 L733.307 563.934 L733.987 558.258 L734.214 552.546 L734.214 552.546  Z" fill="#ffffff" fill-rule="evenodd" fill-opacity="1"></path>
<polyline clip-path="url(#clip102)" style="stroke:#000000; stroke-linecap:round; stroke-linejoin:round; stroke-width:4; stroke-opacity:1; fill:none" points="734.214,552.546 733.987,546.834 733.307,541.158 732.177,535.554 730.607,530.057 728.604,524.702 726.182,519.524 723.357,514.554 720.145,509.825 716.568,505.365 712.648,501.204 708.41,497.368 703.88,493.88 699.088,490.763 694.063,488.037 688.837,485.719 683.444,483.823 677.917,482.362 672.292,481.344 666.603,480.777 660.888,480.663 655.181,481.004 649.52,481.797 643.939,483.038 638.475,484.717 633.161,486.826 628.032,489.35 623.119,492.274 618.455,495.579 614.067,499.244 609.985,503.246 606.233,507.559 602.836,512.158 599.816,517.011 597.19,522.089 594.976,527.36 593.188,532.79 591.837,538.344 590.931,543.989 590.477,549.688 590.477,555.404 590.931,561.103 591.837,566.748 593.188,572.302 594.976,577.732 597.19,583.003 599.816,588.081 602.836,592.935 606.233,597.533 609.985,601.846 614.067,605.848 618.455,609.513 623.119,612.818 628.032,615.742 633.161,618.266 638.475,620.375 643.939,622.055 649.52,623.295 655.181,624.088 660.888,624.429 666.603,624.315 672.292,623.748 677.917,622.73 683.444,621.269 688.837,619.373 694.063,617.055 699.088,614.329 703.88,611.212 708.41,607.724 712.648,603.888 716.568,599.727 720.145,595.267 723.357,590.538 726.182,585.568 728.604,580.39 730.607,575.035 732.177,569.539 733.307,563.934 733.987,558.258 734.214,552.546 "></polyline>
<path clip-path="url(#clip102)" d="M1395.03 684.585 L1538.83 684.585 L1538.83 552.445 L1395.03 552.445 L1395.03 684.585 L1395.03 684.585  Z" fill="#90ee90" fill-rule="evenodd" fill-opacity="1"></path>
<polyline clip-path="url(#clip102)" style="stroke:#000000; stroke-linecap:round; stroke-linejoin:round; stroke-width:4; stroke-opacity:1; fill:none" points="1395.03,684.585 1538.83,684.585 1538.83,552.445 1395.03,552.445 1395.03,684.585 "></polyline>
<path clip-path="url(#clip102)" d="M1259.83 1337.68 L1259.6 1331.97 L1258.92 1326.29 L1257.79 1320.69 L1256.22 1315.19 L1254.22 1309.84 L1251.79 1304.66 L1248.97 1299.69 L1245.76 1294.96 L1242.18 1290.5 L1238.26 1286.34 L1234.02 1282.5 L1229.49 1279.02 L1224.7 1275.9 L1219.68 1273.17 L1214.45 1270.86 L1209.06 1268.96 L1203.53 1267.5 L1197.9 1266.48 L1192.22 1265.91 L1186.5 1265.8 L1180.79 1266.14 L1175.13 1266.93 L1169.55 1268.17 L1164.09 1269.85 L1158.77 1271.96 L1153.64 1274.49 L1148.73 1277.41 L1144.07 1280.72 L1139.68 1284.38 L1135.6 1288.38 L1131.85 1292.7 L1128.45 1297.29 L1125.43 1302.15 L1122.8 1307.23 L1120.59 1312.5 L1118.8 1317.93 L1117.45 1323.48 L1116.54 1329.13 L1116.09 1334.82 L1116.09 1340.54 L1116.54 1346.24 L1117.45 1351.88 L1118.8 1357.44 L1120.59 1362.87 L1122.8 1368.14 L1125.43 1373.22 L1128.45 1378.07 L1131.85 1382.67 L1135.6 1386.98 L1139.68 1390.99 L1144.07 1394.65 L1148.73 1397.95 L1153.64 1400.88 L1158.77 1403.4 L1164.09 1405.51 L1169.55 1407.19 L1175.13 1408.43 L1180.79 1409.22 L1186.5 1409.57 L1192.22 1409.45 L1197.9 1408.88 L1203.53 1407.87 L1209.06 1406.41 L1214.45 1404.51 L1219.68 1402.19 L1224.7 1399.47 L1229.49 1396.35 L1234.02 1392.86 L1238.26 1389.02 L1242.18 1384.86 L1245.76 1380.4 L1248.97 1375.67 L1251.79 1370.7 L1254.22 1365.53 L1256.22 1360.17 L1257.79 1354.68 L1258.92 1349.07 L1259.6 1343.4 L1259.83 1337.68 L1259.83 1337.68  Z" fill="#ffffff" fill-rule="evenodd" fill-opacity="1"></path>
<polyline clip-path="url(#clip102)" style="stroke:#000000; stroke-linecap:round; stroke-linejoin:round; stroke-width:4; stroke-opacity:1; fill:none" points="1259.83,1337.68 1259.6,1331.97 1258.92,1326.29 1257.79,1320.69 1256.22,1315.19 1254.22,1309.84 1251.79,1304.66 1248.97,1299.69 1245.76,1294.96 1242.18,1290.5 1238.26,1286.34 1234.02,1282.5 1229.49,1279.02 1224.7,1275.9 1219.68,1273.17 1214.45,1270.86 1209.06,1268.96 1203.53,1267.5 1197.9,1266.48 1192.22,1265.91 1186.5,1265.8 1180.79,1266.14 1175.13,1266.93 1169.55,1268.17 1164.09,1269.85 1158.77,1271.96 1153.64,1274.49 1148.73,1277.41 1144.07,1280.72 1139.68,1284.38 1135.6,1288.38 1131.85,1292.7 1128.45,1297.29 1125.43,1302.15 1122.8,1307.23 1120.59,1312.5 1118.8,1317.93 1117.45,1323.48 1116.54,1329.13 1116.09,1334.82 1116.09,1340.54 1116.54,1346.24 1117.45,1351.88 1118.8,1357.44 1120.59,1362.87 1122.8,1368.14 1125.43,1373.22 1128.45,1378.07 1131.85,1382.67 1135.6,1386.98 1139.68,1390.99 1144.07,1394.65 1148.73,1397.95 1153.64,1400.88 1158.77,1403.4 1164.09,1405.51 1169.55,1407.19 1175.13,1408.43 1180.79,1409.22 1186.5,1409.57 1192.22,1409.45 1197.9,1408.88 1203.53,1407.87 1209.06,1406.41 1214.45,1404.51 1219.68,1402.19 1224.7,1399.47 1229.49,1396.35 1234.02,1392.86 1238.26,1389.02 1242.18,1384.86 1245.76,1380.4 1248.97,1375.67 1251.79,1370.7 1254.22,1365.53 1256.22,1360.17 1257.79,1354.68 1258.92,1349.07 1259.6,1343.4 1259.83,1337.68 "></polyline>
<path clip-path="url(#clip102)" d="M1014.03 637.483 L1157.83 637.483 L1157.83 505.342 L1014.03 505.342 L1014.03 637.483 L1014.03 637.483  Z" fill="#90ee90" fill-rule="evenodd" fill-opacity="1"></path>
<polyline clip-path="url(#clip102)" style="stroke:#000000; stroke-linecap:round; stroke-linejoin:round; stroke-width:4; stroke-opacity:1; fill:none" points="1014.03,637.483 1157.83,637.483 1157.83,505.342 1014.03,505.342 1014.03,637.483 "></polyline>
<path clip-path="url(#clip102)" d="M908.415 1039.99 L1052.21 1039.99 L1052.21 907.853 L908.415 907.853 L908.415 1039.99 L908.415 1039.99  Z" fill="#90ee90" fill-rule="evenodd" fill-opacity="1"></path>
<polyline clip-path="url(#clip102)" style="stroke:#000000; stroke-linecap:round; stroke-linejoin:round; stroke-width:4; stroke-opacity:1; fill:none" points="908.415,1039.99 1052.21,1039.99 1052.21,907.853 908.415,907.853 908.415,1039.99 "></polyline>
<path clip-path="url(#clip102)" d="M1681.05 262.317 L1680.82 256.605 L1680.14 250.929 L1679.01 245.325 L1677.44 239.828 L1675.43 234.474 L1673.01 229.295 L1670.19 224.325 L1666.98 219.596 L1663.4 215.136 L1659.48 210.975 L1655.24 207.139 L1650.71 203.651 L1645.92 200.534 L1640.89 197.808 L1635.67 195.49 L1630.28 193.594 L1624.75 192.133 L1619.12 191.115 L1613.43 190.548 L1607.72 190.434 L1602.01 190.775 L1596.35 191.568 L1590.77 192.809 L1585.31 194.489 L1579.99 196.597 L1574.86 199.121 L1569.95 202.045 L1565.29 205.35 L1560.9 209.015 L1556.82 213.017 L1553.06 217.331 L1549.67 221.929 L1546.65 226.782 L1544.02 231.86 L1541.81 237.131 L1540.02 242.561 L1538.67 248.116 L1537.76 253.76 L1537.31 259.459 L1537.31 265.176 L1537.76 270.874 L1538.67 276.519 L1540.02 282.074 L1541.81 287.504 L1544.02 292.774 L1546.65 297.852 L1549.67 302.706 L1553.06 307.304 L1556.82 311.617 L1560.9 315.619 L1565.29 319.284 L1569.95 322.589 L1574.86 325.513 L1579.99 328.037 L1585.31 330.146 L1590.77 331.826 L1596.35 333.066 L1602.01 333.859 L1607.72 334.2 L1613.43 334.086 L1619.12 333.519 L1624.75 332.501 L1630.28 331.04 L1635.67 329.144 L1640.89 326.826 L1645.92 324.1 L1650.71 320.983 L1655.24 317.496 L1659.48 313.659 L1663.4 309.498 L1666.98 305.039 L1670.19 300.309 L1673.01 295.339 L1675.43 290.161 L1677.44 284.806 L1679.01 279.31 L1680.14 273.706 L1680.82 268.029 L1681.05 262.317 L1681.05 262.317  Z" fill="#ffffff" fill-rule="evenodd" fill-opacity="1"></path>
<polyline clip-path="url(#clip102)" style="stroke:#000000; stroke-linecap:round; stroke-linejoin:round; stroke-width:4; stroke-opacity:1; fill:none" points="1681.05,262.317 1680.82,256.605 1680.14,250.929 1679.01,245.325 1677.44,239.828 1675.43,234.474 1673.01,229.295 1670.19,224.325 1666.98,219.596 1663.4,215.136 1659.48,210.975 1655.24,207.139 1650.71,203.651 1645.92,200.534 1640.89,197.808 1635.67,195.49 1630.28,193.594 1624.75,192.133 1619.12,191.115 1613.43,190.548 1607.72,190.434 1602.01,190.775 1596.35,191.568 1590.77,192.809 1585.31,194.489 1579.99,196.597 1574.86,199.121 1569.95,202.045 1565.29,205.35 1560.9,209.015 1556.82,213.017 1553.06,217.331 1549.67,221.929 1546.65,226.782 1544.02,231.86 1541.81,237.131 1540.02,242.561 1538.67,248.116 1537.76,253.76 1537.31,259.459 1537.31,265.176 1537.76,270.874 1538.67,276.519 1540.02,282.074 1541.81,287.504 1544.02,292.774 1546.65,297.852 1549.67,302.706 1553.06,307.304 1556.82,311.617 1560.9,315.619 1565.29,319.284 1569.95,322.589 1574.86,325.513 1579.99,328.037 1585.31,330.146 1590.77,331.826 1596.35,333.066 1602.01,333.859 1607.72,334.2 1613.43,334.086 1619.12,333.519 1624.75,332.501 1630.28,331.04 1635.67,329.144 1640.89,326.826 1645.92,324.1 1650.71,320.983 1655.24,317.496 1659.48,313.659 1663.4,309.498 1666.98,305.039 1670.19,300.309 1673.01,295.339 1675.43,290.161 1677.44,284.806 1679.01,279.31 1680.14,273.706 1680.82,268.029 1681.05,262.317 "></polyline>
<circle clip-path="url(#clip102)" cx="1219.2" cy="883.652" r="0.72" fill="#ffffff" fill-rule="evenodd" fill-opacity="1" stroke="#000000" stroke-opacity="1" stroke-width="3.2"></circle>
<circle clip-path="url(#clip102)" cx="1384.41" cy="1234.62" r="0.72" fill="#ffffff" fill-rule="evenodd" fill-opacity="1" stroke="#000000" stroke-opacity="1" stroke-width="3.2"></circle>
<circle clip-path="url(#clip102)" cx="1737.68" cy="572.712" r="0.72" fill="#ffffff" fill-rule="evenodd" fill-opacity="1" stroke="#000000" stroke-opacity="1" stroke-width="3.2"></circle>
<circle clip-path="url(#clip102)" cx="914.842" cy="698.556" r="0.72" fill="#ffffff" fill-rule="evenodd" fill-opacity="1" stroke="#000000" stroke-opacity="1" stroke-width="3.2"></circle>
<circle clip-path="url(#clip102)" cx="662.317" cy="552.546" r="0.72" fill="#ffffff" fill-rule="evenodd" fill-opacity="1" stroke="#000000" stroke-opacity="1" stroke-width="3.2"></circle>
<circle clip-path="url(#clip102)" cx="1466.93" cy="618.515" r="0.72" fill="#ffffff" fill-rule="evenodd" fill-opacity="1" stroke="#000000" stroke-opacity="1" stroke-width="3.2"></circle>
<circle clip-path="url(#clip102)" cx="1187.93" cy="1337.68" r="0.72" fill="#ffffff" fill-rule="evenodd" fill-opacity="1" stroke="#000000" stroke-opacity="1" stroke-width="3.2"></circle>
<circle clip-path="url(#clip102)" cx="1085.93" cy="571.412" r="0.72" fill="#ffffff" fill-rule="evenodd" fill-opacity="1" stroke="#000000" stroke-opacity="1" stroke-width="3.2"></circle>
<circle clip-path="url(#clip102)" cx="980.312" cy="973.923" r="0.72" fill="#ffffff" fill-rule="evenodd" fill-opacity="1" stroke="#000000" stroke-opacity="1" stroke-width="3.2"></circle>
<circle clip-path="url(#clip102)" cx="1609.15" cy="262.317" r="0.72" fill="#ffffff" fill-rule="evenodd" fill-opacity="1" stroke="#000000" stroke-opacity="1" stroke-width="3.2"></circle>
<path clip-path="url(#clip100)" d="M1204.73 869.451 Q1201.12 869.451 1199.29 873.015 Q1197.49 876.557 1197.49 883.687 Q1197.49 890.793 1199.29 894.358 Q1201.12 897.9 1204.73 897.9 Q1208.37 897.9 1210.17 894.358 Q1212 890.793 1212 883.687 Q1212 876.557 1210.17 873.015 Q1208.37 869.451 1204.73 869.451 M1204.73 865.747 Q1210.54 865.747 1213.6 870.353 Q1216.68 874.937 1216.68 883.687 Q1216.68 892.414 1213.6 897.02 Q1210.54 901.603 1204.73 901.603 Q1198.92 901.603 1195.84 897.02 Q1192.79 892.414 1192.79 883.687 Q1192.79 874.937 1195.84 870.353 Q1198.92 865.747 1204.73 865.747 Z" fill="#000000" fill-rule="nonzero" fill-opacity="1"></path><path clip-path="url(#clip100)" d="M1225.7 896.997 L1233.34 896.997 L1233.34 870.631 L1225.03 872.298 L1225.03 868.039 L1233.3 866.372 L1237.97 866.372 L1237.97 896.997 L1245.61 896.997 L1245.61 900.932 L1225.7 900.932 L1225.7 896.997 Z" fill="#000000" fill-rule="nonzero" fill-opacity="1"></path><path clip-path="url(#clip100)" d="M1370.13 1220.42 Q1366.52 1220.42 1364.69 1223.99 Q1362.89 1227.53 1362.89 1234.66 Q1362.89 1241.76 1364.69 1245.33 Q1366.52 1248.87 1370.13 1248.87 Q1373.77 1248.87 1375.57 1245.33 Q1377.4 1241.76 1377.4 1234.66 Q1377.4 1227.53 1375.57 1223.99 Q1373.77 1220.42 1370.13 1220.42 M1370.13 1216.72 Q1375.94 1216.72 1379 1221.32 Q1382.08 1225.91 1382.08 1234.66 Q1382.08 1243.38 1379 1247.99 Q1375.94 1252.57 1370.13 1252.57 Q1364.32 1252.57 1361.24 1247.99 Q1358.19 1243.38 1358.19 1234.66 Q1358.19 1225.91 1361.24 1221.32 Q1364.32 1216.72 1370.13 1216.72 Z" fill="#000000" fill-rule="nonzero" fill-opacity="1"></path><path clip-path="url(#clip100)" d="M1394.32 1247.97 L1410.64 1247.97 L1410.64 1251.9 L1388.7 1251.9 L1388.7 1247.97 Q1391.36 1245.21 1395.94 1240.58 Q1400.55 1235.93 1401.73 1234.59 Q1403.97 1232.06 1404.85 1230.33 Q1405.76 1228.57 1405.76 1226.88 Q1405.76 1224.12 1403.81 1222.39 Q1401.89 1220.65 1398.79 1220.65 Q1396.59 1220.65 1394.14 1221.42 Q1391.71 1222.18 1388.93 1223.73 L1388.93 1219.01 Q1391.75 1217.87 1394.21 1217.3 Q1396.66 1216.72 1398.7 1216.72 Q1404.07 1216.72 1407.26 1219.4 Q1410.45 1222.09 1410.45 1226.58 Q1410.45 1228.71 1409.64 1230.63 Q1408.86 1232.53 1406.75 1235.12 Q1406.17 1235.79 1403.07 1239.01 Q1399.97 1242.2 1394.32 1247.97 Z" fill="#000000" fill-rule="nonzero" fill-opacity="1"></path><path clip-path="url(#clip100)" d="M1722.93 558.511 Q1719.31 558.511 1717.49 562.076 Q1715.68 565.617 1715.68 572.747 Q1715.68 579.853 1717.49 583.418 Q1719.31 586.96 1722.93 586.96 Q1726.56 586.96 1728.37 583.418 Q1730.19 579.853 1730.19 572.747 Q1730.19 565.617 1728.37 562.076 Q1726.56 558.511 1722.93 558.511 M1722.93 554.807 Q1728.74 554.807 1731.79 559.414 Q1734.87 563.997 1734.87 572.747 Q1734.87 581.474 1731.79 586.08 Q1728.74 590.664 1722.93 590.664 Q1717.12 590.664 1714.04 586.08 Q1710.98 581.474 1710.98 572.747 Q1710.98 563.997 1714.04 559.414 Q1717.12 554.807 1722.93 554.807 Z" fill="#000000" fill-rule="nonzero" fill-opacity="1"></path><path clip-path="url(#clip100)" d="M1757.25 571.358 Q1760.61 572.076 1762.49 574.344 Q1764.38 576.613 1764.38 579.946 Q1764.38 585.062 1760.87 587.863 Q1757.35 590.664 1750.87 590.664 Q1748.69 590.664 1746.37 590.224 Q1744.08 589.807 1741.63 588.951 L1741.63 584.437 Q1743.57 585.571 1745.89 586.15 Q1748.2 586.728 1750.73 586.728 Q1755.12 586.728 1757.42 584.992 Q1759.73 583.256 1759.73 579.946 Q1759.73 576.891 1757.58 575.178 Q1755.45 573.441 1751.63 573.441 L1747.6 573.441 L1747.6 569.599 L1751.81 569.599 Q1755.26 569.599 1757.09 568.233 Q1758.92 566.844 1758.92 564.252 Q1758.92 561.59 1757.02 560.178 Q1755.15 558.742 1751.63 558.742 Q1749.71 558.742 1747.51 559.159 Q1745.31 559.576 1742.67 560.455 L1742.67 556.289 Q1745.33 555.548 1747.65 555.178 Q1749.99 554.807 1752.05 554.807 Q1757.37 554.807 1760.47 557.238 Q1763.57 559.645 1763.57 563.766 Q1763.57 566.636 1761.93 568.627 Q1760.29 570.594 1757.25 571.358 Z" fill="#000000" fill-rule="nonzero" fill-opacity="1"></path><path clip-path="url(#clip100)" d="M899.518 684.355 Q895.907 684.355 894.079 687.919 Q892.273 691.461 892.273 698.591 Q892.273 705.697 894.079 709.262 Q895.907 712.803 899.518 712.803 Q903.153 712.803 904.958 709.262 Q906.787 705.697 906.787 698.591 Q906.787 691.461 904.958 687.919 Q903.153 684.355 899.518 684.355 M899.518 680.651 Q905.328 680.651 908.384 685.257 Q911.463 689.841 911.463 698.591 Q911.463 707.317 908.384 711.924 Q905.328 716.507 899.518 716.507 Q893.708 716.507 890.63 711.924 Q887.574 707.317 887.574 698.591 Q887.574 689.841 890.63 685.257 Q893.708 680.651 899.518 680.651 Z" fill="#000000" fill-rule="nonzero" fill-opacity="1"></path><path clip-path="url(#clip100)" d="M932.527 685.35 L920.722 703.799 L932.527 703.799 L932.527 685.35 M931.301 681.276 L937.18 681.276 L937.18 703.799 L942.111 703.799 L942.111 707.688 L937.18 707.688 L937.18 715.836 L932.527 715.836 L932.527 707.688 L916.926 707.688 L916.926 703.174 L931.301 681.276 Z" fill="#000000" fill-rule="nonzero" fill-opacity="1"></path><path clip-path="url(#clip100)" d="M647.734 538.345 Q644.123 538.345 642.294 541.91 Q640.489 545.451 640.489 552.581 Q640.489 559.687 642.294 563.252 Q644.123 566.794 647.734 566.794 Q651.368 566.794 653.174 563.252 Q655.002 559.687 655.002 552.581 Q655.002 545.451 653.174 541.91 Q651.368 538.345 647.734 538.345 M647.734 534.641 Q653.544 534.641 656.6 539.248 Q659.678 543.831 659.678 552.581 Q659.678 561.308 656.6 565.914 Q653.544 570.497 647.734 570.497 Q641.924 570.497 638.845 565.914 Q635.79 561.308 635.79 552.581 Q635.79 543.831 638.845 539.248 Q641.924 534.641 647.734 534.641 Z" fill="#000000" fill-rule="nonzero" fill-opacity="1"></path><path clip-path="url(#clip100)" d="M667.942 535.266 L686.299 535.266 L686.299 539.201 L672.225 539.201 L672.225 547.673 Q673.243 547.326 674.262 547.164 Q675.28 546.979 676.299 546.979 Q682.086 546.979 685.465 550.15 Q688.845 553.322 688.845 558.738 Q688.845 564.317 685.373 567.419 Q681.9 570.497 675.581 570.497 Q673.405 570.497 671.137 570.127 Q668.891 569.757 666.484 569.016 L666.484 564.317 Q668.567 565.451 670.789 566.007 Q673.012 566.562 675.488 566.562 Q679.493 566.562 681.831 564.456 Q684.169 562.349 684.169 558.738 Q684.169 555.127 681.831 553.021 Q679.493 550.914 675.488 550.914 Q673.613 550.914 671.738 551.331 Q669.887 551.747 667.942 552.627 L667.942 535.266 Z" fill="#000000" fill-rule="nonzero" fill-opacity="1"></path><path clip-path="url(#clip100)" d="M1451.77 604.314 Q1448.16 604.314 1446.33 607.878 Q1444.52 611.42 1444.52 618.55 Q1444.52 625.656 1446.33 629.221 Q1448.16 632.763 1451.77 632.763 Q1455.4 632.763 1457.21 629.221 Q1459.04 625.656 1459.04 618.55 Q1459.04 611.42 1457.21 607.878 Q1455.4 604.314 1451.77 604.314 M1451.77 600.61 Q1457.58 600.61 1460.63 605.216 Q1463.71 609.8 1463.71 618.55 Q1463.71 627.276 1460.63 631.883 Q1457.58 636.466 1451.77 636.466 Q1445.96 636.466 1442.88 631.883 Q1439.82 627.276 1439.82 618.55 Q1439.82 609.8 1442.88 605.216 Q1445.96 600.61 1451.77 600.61 Z" fill="#000000" fill-rule="nonzero" fill-opacity="1"></path><path clip-path="url(#clip100)" d="M1482.51 616.652 Q1479.36 616.652 1477.51 618.804 Q1475.68 620.957 1475.68 624.707 Q1475.68 628.434 1477.51 630.61 Q1479.36 632.763 1482.51 632.763 Q1485.66 632.763 1487.48 630.61 Q1489.34 628.434 1489.34 624.707 Q1489.34 620.957 1487.48 618.804 Q1485.66 616.652 1482.51 616.652 M1491.79 601.999 L1491.79 606.258 Q1490.03 605.425 1488.22 604.985 Q1486.44 604.545 1484.68 604.545 Q1480.05 604.545 1477.6 607.67 Q1475.17 610.795 1474.82 617.115 Q1476.19 615.101 1478.25 614.036 Q1480.31 612.948 1482.78 612.948 Q1487.99 612.948 1491 616.119 Q1494.03 619.267 1494.03 624.707 Q1494.03 630.031 1490.89 633.249 Q1487.74 636.466 1482.51 636.466 Q1476.51 636.466 1473.34 631.883 Q1470.17 627.276 1470.17 618.55 Q1470.17 610.355 1474.06 605.494 Q1477.95 600.61 1484.5 600.61 Q1486.26 600.61 1488.04 600.957 Q1489.85 601.304 1491.79 601.999 Z" fill="#000000" fill-rule="nonzero" fill-opacity="1"></path><path clip-path="url(#clip100)" d="M1173.3 1323.48 Q1169.69 1323.48 1167.86 1327.05 Q1166.05 1330.59 1166.05 1337.72 Q1166.05 1344.82 1167.86 1348.39 Q1169.69 1351.93 1173.3 1351.93 Q1176.93 1351.93 1178.74 1348.39 Q1180.57 1344.82 1180.57 1337.72 Q1180.57 1330.59 1178.74 1327.05 Q1176.93 1323.48 1173.3 1323.48 M1173.3 1319.78 Q1179.11 1319.78 1182.17 1324.38 Q1185.24 1328.97 1185.24 1337.72 Q1185.24 1346.44 1182.17 1351.05 Q1179.11 1355.63 1173.3 1355.63 Q1167.49 1355.63 1164.41 1351.05 Q1161.36 1346.44 1161.36 1337.72 Q1161.36 1328.97 1164.41 1324.38 Q1167.49 1319.78 1173.3 1319.78 Z" fill="#000000" fill-rule="nonzero" fill-opacity="1"></path><path clip-path="url(#clip100)" d="M1192.28 1320.4 L1214.5 1320.4 L1214.5 1322.39 L1201.96 1354.96 L1197.07 1354.96 L1208.88 1324.34 L1192.28 1324.34 L1192.28 1320.4 Z" fill="#000000" fill-rule="nonzero" fill-opacity="1"></path><path clip-path="url(#clip100)" d="M1070.89 557.211 Q1067.28 557.211 1065.45 560.776 Q1063.65 564.318 1063.65 571.447 Q1063.65 578.554 1065.45 582.118 Q1067.28 585.66 1070.89 585.66 Q1074.53 585.66 1076.33 582.118 Q1078.16 578.554 1078.16 571.447 Q1078.16 564.318 1076.33 560.776 Q1074.53 557.211 1070.89 557.211 M1070.89 553.507 Q1076.7 553.507 1079.76 558.114 Q1082.84 562.697 1082.84 571.447 Q1082.84 580.174 1079.76 584.78 Q1076.7 589.364 1070.89 589.364 Q1065.08 589.364 1062.01 584.78 Q1058.95 580.174 1058.95 571.447 Q1058.95 562.697 1062.01 558.114 Q1065.08 553.507 1070.89 553.507 Z" fill="#000000" fill-rule="nonzero" fill-opacity="1"></path><path clip-path="url(#clip100)" d="M1101.06 572.281 Q1097.72 572.281 1095.8 574.063 Q1093.9 575.845 1093.9 578.97 Q1093.9 582.095 1095.8 583.878 Q1097.72 585.66 1101.06 585.66 Q1104.39 585.66 1106.31 583.878 Q1108.23 582.072 1108.23 578.97 Q1108.23 575.845 1106.31 574.063 Q1104.41 572.281 1101.06 572.281 M1096.38 570.29 Q1093.37 569.549 1091.68 567.489 Q1090.01 565.429 1090.01 562.466 Q1090.01 558.322 1092.95 555.915 Q1095.92 553.507 1101.06 553.507 Q1106.22 553.507 1109.16 555.915 Q1112.1 558.322 1112.1 562.466 Q1112.1 565.429 1110.41 567.489 Q1108.74 569.549 1105.76 570.29 Q1109.14 571.077 1111.01 573.369 Q1112.91 575.66 1112.91 578.97 Q1112.91 583.993 1109.83 586.679 Q1106.77 589.364 1101.06 589.364 Q1095.34 589.364 1092.26 586.679 Q1089.2 583.993 1089.2 578.97 Q1089.2 575.66 1091.1 573.369 Q1093 571.077 1096.38 570.29 M1094.67 562.906 Q1094.67 565.591 1096.33 567.095 Q1098.02 568.6 1101.06 568.6 Q1104.07 568.6 1105.76 567.095 Q1107.47 565.591 1107.47 562.906 Q1107.47 560.22 1105.76 558.716 Q1104.07 557.211 1101.06 557.211 Q1098.02 557.211 1096.33 558.716 Q1094.67 560.22 1094.67 562.906 Z" fill="#000000" fill-rule="nonzero" fill-opacity="1"></path><path clip-path="url(#clip100)" d="M965.324 959.722 Q961.713 959.722 959.884 963.287 Q958.079 966.828 958.079 973.958 Q958.079 981.065 959.884 984.629 Q961.713 988.171 965.324 988.171 Q968.958 988.171 970.764 984.629 Q972.592 981.065 972.592 973.958 Q972.592 966.828 970.764 963.287 Q968.958 959.722 965.324 959.722 M965.324 956.018 Q971.134 956.018 974.19 960.625 Q977.268 965.208 977.268 973.958 Q977.268 982.685 974.19 987.291 Q971.134 991.875 965.324 991.875 Q959.514 991.875 956.435 987.291 Q953.38 982.685 953.38 973.958 Q953.38 965.208 956.435 960.625 Q959.514 956.018 965.324 956.018 Z" fill="#000000" fill-rule="nonzero" fill-opacity="1"></path><path clip-path="url(#clip100)" d="M985.625 990.486 L985.625 986.227 Q987.384 987.06 989.19 987.5 Q990.995 987.939 992.731 987.939 Q997.361 987.939 999.791 984.838 Q1002.25 981.713 1002.59 975.37 Q1001.25 977.361 999.189 978.426 Q997.129 979.49 994.629 979.49 Q989.444 979.49 986.412 976.365 Q983.403 973.217 983.403 967.778 Q983.403 962.454 986.551 959.236 Q989.699 956.018 994.93 956.018 Q1000.93 956.018 1004.07 960.625 Q1007.24 965.208 1007.24 973.958 Q1007.24 982.129 1003.36 987.014 Q999.49 991.875 992.94 991.875 Q991.18 991.875 989.375 991.527 Q987.569 991.18 985.625 990.486 M994.93 975.833 Q998.078 975.833 999.907 973.68 Q1001.76 971.528 1001.76 967.778 Q1001.76 964.051 999.907 961.898 Q998.078 959.722 994.93 959.722 Q991.782 959.722 989.93 961.898 Q988.102 964.051 988.102 967.778 Q988.102 971.528 989.93 973.68 Q991.782 975.833 994.93 975.833 Z" fill="#000000" fill-rule="nonzero" fill-opacity="1"></path><path clip-path="url(#clip100)" d="M1583.84 275.662 L1591.47 275.662 L1591.47 249.296 L1583.16 250.963 L1583.16 246.704 L1591.43 245.037 L1596.1 245.037 L1596.1 275.662 L1603.74 275.662 L1603.74 279.597 L1583.84 279.597 L1583.84 275.662 Z" fill="#000000" fill-rule="nonzero" fill-opacity="1"></path><path clip-path="url(#clip100)" d="M1623.19 248.116 Q1619.58 248.116 1617.75 251.681 Q1615.94 255.222 1615.94 262.352 Q1615.94 269.458 1617.75 273.023 Q1619.58 276.565 1623.19 276.565 Q1626.82 276.565 1628.63 273.023 Q1630.46 269.458 1630.46 262.352 Q1630.46 255.222 1628.63 251.681 Q1626.82 248.116 1623.19 248.116 M1623.19 244.412 Q1629 244.412 1632.05 249.019 Q1635.13 253.602 1635.13 262.352 Q1635.13 271.079 1632.05 275.685 Q1629 280.269 1623.19 280.269 Q1617.38 280.269 1614.3 275.685 Q1611.24 271.079 1611.24 262.352 Q1611.24 253.602 1614.3 249.019 Q1617.38 244.412 1623.19 244.412 Z" fill="#000000" fill-rule="nonzero" fill-opacity="1"></path></svg>